<svg id="Layer_1" data-name="Layer 1" xmlns="http://www.w3.org/2000/svg" viewBox="0 0 772 250"><title>icon</title><rect width="772" height="250" fill="#00bc73"/><path d="M690.44,81.56a25.93,25.93,0,0,1,0,36.6l-9.18,9.12a25.65,25.65,0,0,1-24.84,6.54l15.72-15.66,4.56-4.62,4.56-4.56A12.9,12.9,0,0,0,663,90.74L658.4,95.3l-20.28,20.28a25.82,25.82,0,0,1,6.6-24.84l9.12-9.18A25.93,25.93,0,0,1,690.44,81.56Zm-54.9,64,32-32a6.45,6.45,0,0,0,0-9.12,6.63,6.63,0,0,0-9.18,0l-32,32a6.45,6.45,0,0,0,0,9.12A6.56,6.56,0,0,0,635.54,145.58ZM631,159.32l24.84-24.9a25.65,25.65,0,0,1-6.54,24.84l-9.12,9.18a25.88,25.88,0,1,1-36.6-36.6l9.18-9.12a25.82,25.82,0,0,1,24.84-6.6L612.74,141A12.92,12.92,0,0,0,631,159.32Z" fill="#fff"/></svg>