<svg id="Layer_1" data-name="Layer 1" xmlns="http://www.w3.org/2000/svg" viewBox="0 0 128 128"><title>icon</title><rect width="128" height="128" fill="#00bc73"/><path d="M85.72,42.28a13,13,0,0,1,0,18.3l-4.59,4.56a12.82,12.82,0,0,1-12.42,3.27l7.86-7.83,2.28-2.31L81.13,56A6.45,6.45,0,1,0,72,46.87L69.7,49.15,59.56,59.29a12.91,12.91,0,0,1,3.3-12.42l4.56-4.59A13,13,0,0,1,85.72,42.28Zm-27.45,32,16-16a3.22,3.22,0,0,0,0-4.56,3.32,3.32,0,0,0-4.59,0l-16,16a3.22,3.22,0,0,0,0,4.56A3.28,3.28,0,0,0,58.27,74.29ZM56,81.16L68.41,68.71a12.82,12.82,0,0,1-3.27,12.42l-4.56,4.59a12.94,12.94,0,1,1-18.3-18.3l4.59-4.56a12.91,12.91,0,0,1,12.42-3.3L46.87,72A6.46,6.46,0,0,0,56,81.16Z" fill="#fff"/></svg>